# xmcd
#
# Track frame offsets: 
#        150
#        12756
#        23734
#        36645
#        48656
#        60483
#        74884
#        84631
#        96078
#        106506
#        119057
#        133695
#        144118
#        155084
#        169771
#        181380
#        193216
#        207812
#        221140
#        240633
#        255603
#        271326
#        287314
#        302083
#        321870
#
# Disc length: 4497 seconds
#
# Revision: 1
# Processed by: cddbd v1.5.1PL2 Copyright (c) Steve Scherf et al.
# Submitted via: ExactAudioCopy v0.95b4
#
DISCID=74118f19
DTITLE=Various Artist - Hvìzdy americké country CD2
DYEAR=2000
DGENRE=Country
TTITLE0=Jim Reeves - I Love You Because
TTITLE1=Porter Wagoner - Green Green Grass of Home
TTITLE2=Pam Gadd - On Top of Old Smoky
TTITLE3=Bobby Sykes - Your Cheatin' Heart
TTITLE4=Don Gibson - I Can't Stop Loving You
TTITLE5=Gene Martin - Frankie and Johnny
TTITLE6=Gerge McCormick - Jambalaya
TTITLE7=Frankie Laine - Mule Train
TTITLE8=Dave Dudley - Six Days on the Road
TTITLE9=Bobby Sykes and Lou Darnell - Mockin' Bird Hill
TTITLE10=Louis Nunley - Sixteen Tons
TTITLE11=George Hamilton IV - Abilene
TTITLE12=Hank Locklin - Send Me the Pillow You Dream on
TTITLE13=Bobby Sykes - Born to Lose
TTITLE14=Dolly Parton - 9 to 5
TTITLE15=The Sutherland Brothers and Quiver - Arms of Mary
TTITLE16=Connie Francis - Raining in My Heart
TTITLE17=Lynn Anderson - Top of the World
TTITLE18=Kim Carnes - Bad, Bad Leroy Brown
TTITLE19=Don Williams - I Recall a Gypsy Woman
TTITLE20=Kenny Rogers - Through the Years
TTITLE21=Willie Nelson - Always in My Mind
TTITLE22=Billie Jo Spears - I Don't Want to Talk about It
TTITLE23=The Mavericks - Dance the Night Away
TTITLE24=Billy Ray Cyrus - Achy Breaky Heart
EXTD=
EXTT0=
EXTT1=
EXTT2=
EXTT3=
EXTT4=
EXTT5=
EXTT6=
EXTT7=
EXTT8=
EXTT9=
EXTT10=
EXTT11=
EXTT12=
EXTT13=
EXTT14=
EXTT15=
EXTT16=
EXTT17=
EXTT18=
EXTT19=
EXTT20=
EXTT21=
EXTT22=
EXTT23=
EXTT24=
PLAYORDER=
